<svg version="1.1" id="Layer_1" xmlns="http://www.w3.org/2000/svg" xmlns:xlink="http://www.w3.org/1999/xlink" x="0px" y="0px"
	 width="100%" viewBox="0 0 1280 1280" enable-background="new 0 0 1280 1280" xml:space="preserve">
<path fill="#010101" opacity="1.000000" stroke="none" 
	d="
M590.000000,1281.000000 
	C393.333344,1281.000000 197.166672,1281.000000 1.000000,1281.000000 
	C1.000000,854.333313 1.000000,427.666656 1.000000,1.000000 
	C427.666656,1.000000 854.333313,1.000000 1281.000000,1.000000 
	C1281.000000,427.666656 1281.000000,854.333313 1281.000000,1281.000000 
	C1050.833374,1281.000000 820.666687,1281.000000 590.000000,1281.000000 
M790.127197,541.134705 
	C789.815552,540.728943 789.503906,540.323120 789.079651,539.386414 
	C788.944397,539.266174 788.809143,539.145996 788.686707,538.335327 
	C787.553345,536.327698 786.419922,534.320068 785.259644,531.691589 
	C784.798401,530.795288 784.337158,529.898926 783.896790,528.240906 
	C781.269714,520.492249 778.642639,512.743591 776.065002,504.315491 
	C775.963318,503.877472 775.861694,503.439453 775.863159,502.311981 
	C775.529297,501.228821 775.195496,500.145660 774.994080,498.355286 
	C774.861633,497.903595 774.729187,497.451904 774.714233,496.119629 
	C774.295715,489.415009 773.877197,482.710388 773.422913,475.433472 
	C772.249512,476.248718 771.546692,476.622803 770.981812,477.145905 
	C740.060425,505.778625 732.126587,551.262695 751.712524,588.649963 
	C759.728088,603.950745 770.945007,616.401855 786.181030,625.304810 
	C786.181030,625.304810 786.394043,625.230286 786.723450,625.852783 
	C799.430420,634.781616 813.885864,639.144836 829.264648,642.237549 
	C824.554199,645.076904 819.889526,647.735901 814.875366,648.943848 
	C803.498108,651.684509 792.600037,649.530823 782.781311,643.261658 
	C771.557251,636.095215 759.210266,632.747009 746.546814,636.000427 
	C734.995850,638.967896 724.131409,644.607178 712.915894,649.088318 
	C719.026245,660.785828 719.212097,660.853760 730.011597,655.752930 
	C730.762268,655.398376 731.512268,655.036560 732.234131,654.627808 
	C748.205566,645.581909 764.108704,646.068848 779.611755,655.527161 
	C797.522156,666.454224 815.266846,665.970093 832.899658,655.316406 
	C841.057068,650.387756 849.649353,648.121155 859.102661,648.954224 
	C861.083252,649.128784 863.066650,649.271912 865.660217,649.783936 
	C866.127197,649.792419 866.594177,649.800842 867.629639,650.219360 
	C872.100586,652.112915 876.571533,654.006531 881.031616,655.977783 
	C881.031616,655.977783 881.105835,655.952515 881.422791,656.541687 
	C885.696594,658.335449 889.831299,660.658325 894.269836,661.825867 
	C908.793945,665.646362 922.100464,662.368225 934.864868,654.755005 
	C949.965271,645.748352 965.482422,646.013733 980.941345,654.332336 
	C984.739746,656.376160 988.590027,658.410156 992.621765,659.888489 
	C994.120483,660.438110 996.835327,660.007629 997.901794,658.935791 
	C1000.502747,656.321533 1002.464417,653.071350 1004.318176,650.570068 
	C994.982056,646.393555 986.329346,642.218384 977.425964,638.672729 
	C973.198853,636.989380 968.493530,636.507080 963.182251,635.146240 
	C961.120911,635.192322 959.059509,635.238403 956.111023,635.054443 
	C948.406921,635.015259 941.037659,636.215576 934.243774,640.851257 
	C934.243774,640.851257 934.000977,641.112183 933.297668,641.198303 
	C926.978699,644.065918 920.659668,646.933594 913.964233,649.510376 
	C913.623291,649.442749 913.331116,649.532837 912.528015,649.564453 
	C911.372559,649.760254 910.217163,649.956055 908.255798,649.963318 
	C907.159119,650.021667 906.062500,650.080078 904.203491,649.914001 
	C896.516174,647.559509 888.828918,645.205017 880.777954,642.273987 
	C877.900391,640.589600 875.022888,638.905151 871.640930,636.925476 
	C874.933411,635.115906 877.371338,633.776062 880.278870,632.518311 
	C880.620117,632.446838 880.860901,632.251404 881.699646,631.888977 
	C883.261536,630.968811 884.823364,630.048645 886.783691,629.089355 
	C886.783691,629.089355 886.991455,628.747131 887.681274,628.716431 
	C894.393860,625.164917 900.459900,620.812073 906.269714,614.549377 
	C904.038574,614.217590 902.951477,613.986328 901.853088,613.902893 
	C874.744995,611.842957 850.564209,602.188721 828.976807,585.817139 
	C825.038086,582.830017 821.158386,579.765076 816.998779,576.929382 
	C816.998779,576.929382 817.267334,576.759277 817.122131,576.109070 
	C815.470886,574.587097 813.819702,573.065063 812.035583,571.115356 
	C811.853088,570.847351 811.599854,570.706726 811.100708,570.040649 
	C808.393921,567.033752 805.687195,564.026855 802.833740,560.416931 
	C802.257446,559.859985 801.681152,559.303040 801.026550,558.172913 
	C800.620789,557.801758 800.215088,557.430603 799.733215,556.427917 
	C798.809570,555.308777 797.885986,554.189636 796.993408,553.005554 
	C796.993408,553.005554 796.928162,553.036133 796.802368,552.348022 
	C795.196472,549.910400 793.590576,547.472778 791.808289,544.479309 
	C791.676270,544.336609 791.544312,544.193909 791.517456,543.477417 
	C791.051270,542.875427 790.585144,542.273376 790.127197,541.134705 
M424.281586,700.704224 
	C425.004913,700.293640 425.729309,699.884949 426.451355,699.472168 
	C473.193451,672.749146 498.283234,619.041687 488.286377,567.108337 
	C476.977051,508.356842 424.355988,463.982574 364.431366,463.090698 
	C335.939880,462.666656 307.437988,462.940918 278.940796,462.923889 
	C278.327240,462.923523 277.713501,463.226685 276.777222,463.473175 
	C276.777222,471.563141 276.997467,479.532043 276.690918,487.480682 
	C276.519440,491.927826 277.711243,493.481293 282.466125,493.421814 
	C309.127869,493.088226 335.795166,492.900482 362.458252,493.056305 
	C390.235077,493.218628 413.997406,503.181244 433.512451,523.156921 
	C460.536774,550.819275 468.431610,591.459900 453.571075,627.266541 
	C439.232574,661.815308 403.275452,686.129944 365.851257,686.432312 
	C347.686523,686.579041 329.519806,686.494446 311.354004,686.487549 
	C309.908600,686.487000 308.463287,686.275391 306.374146,686.111328 
	C306.374146,630.048462 306.374146,574.300598 306.374146,518.021484 
	C297.574066,518.021484 289.430969,518.251282 281.310059,517.926514 
	C277.126038,517.759155 276.402496,519.353760 276.411804,523.130310 
	C276.565308,585.625610 276.582275,648.121277 276.629578,710.616821 
	C276.630920,712.377441 276.629761,714.138000 276.629761,716.028015 
	C278.313751,716.172668 279.288086,716.329956 280.262329,716.329346 
	C309.260925,716.311096 338.264893,716.605774 367.256256,716.132568 
	C387.177063,715.807495 406.084290,710.736633 424.281586,700.704224 
M821.664734,450.076477 
	C816.447632,451.750641 811.110474,453.139252 806.079163,455.255219 
	C804.336975,455.987885 802.591248,458.351257 802.150635,460.269318 
	C799.583618,471.442688 799.738403,482.750092 801.697388,494.001740 
	C806.907166,523.924927 823.066895,547.135620 846.649170,565.376099 
	C867.488770,581.495178 891.038147,589.810730 917.771851,588.241272 
	C922.645752,587.955139 924.790344,585.903503 926.401550,581.742371 
	C940.066895,546.450256 934.869080,513.715393 911.398804,484.602814 
	C888.695862,456.441986 858.898621,444.167419 821.664734,450.076477 
M578.453613,561.946594 
	C573.073181,567.616638 567.849731,573.448242 562.250183,578.892883 
	C559.153442,581.904053 558.895447,583.883728 561.947754,587.336121 
	C596.541931,626.465271 631.221924,665.525757 665.202087,705.184631 
	C672.274780,713.439270 679.194214,717.608826 690.065918,716.264404 
	C697.506470,715.344360 705.152771,716.088196 712.823669,716.088196 
	C712.647583,715.002869 712.707214,714.595459 712.531128,714.394470 
	C675.827698,672.495911 639.112366,630.607788 602.382019,588.732788 
	C597.868042,583.586609 597.817749,583.609436 602.545166,578.546997 
	C637.389954,541.232666 672.241760,503.924988 707.076111,466.600922 
	C707.884277,465.734955 708.512329,464.700897 709.878662,462.867310 
	C696.667725,462.867310 684.551086,462.804108 672.437439,462.963196 
	C671.201050,462.979431 669.729370,464.092987 668.791931,465.095001 
	C638.788635,497.164459 608.837891,529.283020 578.453613,561.946594 
M540.282410,716.240784 
	C549.383301,716.072021 548.242859,717.512756 548.243164,708.311340 
	C548.245850,628.373291 548.203186,548.435181 548.174194,468.497101 
	C548.173584,466.754517 548.174133,465.011902 548.174133,463.334595 
	C537.838684,463.334595 528.300842,463.334595 518.925293,463.334595 
	C518.925293,547.768860 518.925293,631.770386 518.925293,716.240662 
	C526.075684,716.240662 532.704224,716.240662 540.282410,716.240784 
M1046.779541,817.153320 
	C1060.605713,805.369141 1058.683472,785.162048 1042.815552,777.368835 
	C1039.136475,775.561951 1034.978027,773.904175 1030.975464,773.738281 
	C1019.197266,773.249878 1007.385193,773.644958 995.589417,773.479309 
	C991.540039,773.422485 990.702637,775.131714 990.722656,778.892334 
	C990.872620,807.052002 990.804382,835.212891 990.804504,863.373352 
	C990.804504,864.992371 990.804504,866.611389 990.804504,868.572876 
	C1005.466614,869.852478 1019.583557,871.485291 1033.568726,868.404175 
	C1038.645142,867.285767 1043.815063,865.109131 1048.109009,862.189758 
	C1062.828491,852.182007 1062.523682,830.383789 1047.922363,820.199646 
	C1047.139648,819.653687 1046.737549,818.561829 1046.779541,817.153320 
M366.566650,868.891479 
	C375.048828,869.248230 383.535156,869.967957 392.012115,869.870361 
	C402.734741,869.746948 412.730469,866.834961 421.149933,859.803223 
	C434.031311,849.045227 437.837555,834.573975 437.404327,818.625427 
	C436.635284,790.312866 418.668060,772.707153 390.432312,772.590210 
	C382.616333,772.557800 374.800354,773.427917 366.977875,773.618408 
	C363.790771,773.695984 363.161072,775.054932 363.168884,777.925232 
	C363.247864,806.924561 363.177734,835.924255 363.311401,864.923157 
	C363.317505,866.247681 364.864349,867.565186 366.566650,868.891479 
M211.607010,776.249329 
	C203.232590,780.007568 197.000580,786.078979 192.884048,794.199951 
	C185.157593,809.442444 183.699631,825.487122 188.437057,841.779541 
	C196.288956,868.782959 220.558350,878.413513 244.998489,864.645203 
	C245.626434,864.291443 246.367554,864.138489 247.159500,863.854736 
	C247.471771,865.765137 247.724030,867.308350 247.936096,868.605713 
	C252.923203,868.605713 257.493988,868.605713 262.081360,868.605713 
	C262.081360,851.276001 262.081360,834.336731 262.081360,817.204468 
	C250.669601,817.204468 239.552094,817.204468 228.241791,817.204468 
	C228.241791,821.776733 228.241791,826.133179 228.241791,830.969116 
	C234.560471,830.969116 240.498154,830.969116 246.664307,830.969116 
	C246.664307,836.274109 246.759384,841.100159 246.595718,845.917358 
	C246.556076,847.083801 245.944016,848.501648 245.119125,849.329712 
	C233.119461,861.375488 212.423782,857.589905 206.035980,841.855042 
	C200.669037,828.634827 200.972580,815.020081 206.628998,801.957886 
	C210.934082,792.016357 219.032379,786.774780 230.069519,787.565796 
	C234.797745,787.904663 239.495529,789.363831 244.082733,790.731323 
	C247.177963,791.653992 250.055679,793.306274 253.308975,794.756287 
	C255.050079,790.887390 256.851044,787.499512 258.029602,783.907532 
	C258.402527,782.770813 257.527618,780.308533 256.521515,779.773682 
	C242.362549,772.245422 227.672241,769.805969 211.607010,776.249329 
M514.381226,817.020020 
	C505.452087,817.020020 496.522949,817.020020 487.399963,817.020020 
	C487.399963,821.856934 487.399963,826.087524 487.399963,830.799927 
	C493.621521,830.799927 499.538208,830.799927 505.937134,830.799927 
	C505.937134,836.392090 505.991913,841.508667 505.883636,846.621765 
	C505.865417,847.482666 505.364136,848.590027 504.712372,849.142700 
	C493.047485,859.031311 474.489746,859.482605 466.481964,844.439758 
	C461.565277,835.203552 461.025146,825.261414 462.309387,815.262085 
	C465.544525,790.072021 483.302826,780.717590 506.197113,791.852844 
	C508.228455,792.840881 510.264618,793.818909 512.305969,794.805176 
	C519.288513,779.017212 522.563782,781.769775 505.272247,775.285339 
	C486.043823,768.074524 465.491394,773.915833 454.961761,789.692688 
	C444.124756,805.930115 442.598358,823.906311 447.891815,842.344116 
	C455.335510,868.271545 479.153839,878.041809 502.978485,865.367615 
	C503.951263,864.850159 505.009552,864.493408 506.331696,863.933105 
	C506.641846,865.818298 506.893097,867.345642 507.112152,868.677124 
	C512.102844,868.677124 516.689392,868.677124 521.436035,868.677124 
	C521.436035,851.444458 521.436035,834.529968 521.436035,817.019409 
	C519.233521,817.019409 517.288757,817.019409 514.381226,817.020020 
M885.996277,800.500000 
	C885.996277,791.707642 885.996277,782.915344 885.996277,773.978821 
	C880.302002,773.978821 875.114929,773.978821 869.521118,773.978821 
	C869.521118,787.032349 869.521118,799.638550 869.521118,812.509277 
	C855.877380,812.509277 842.651855,812.509277 828.890381,812.509277 
	C828.890381,799.467529 828.890381,786.730347 828.890381,773.848999 
	C823.278503,773.848999 818.207764,773.848999 813.034058,773.848999 
	C813.034058,805.679382 813.034058,837.185486 813.034058,868.650391 
	C818.499817,868.650391 823.579590,868.650391 829.255127,868.650391 
	C829.255127,854.793945 829.255127,841.263000 829.255127,827.771484 
	C842.944763,827.771484 856.026611,827.771484 869.722839,827.771484 
	C869.722839,841.598633 869.722839,855.137024 869.722839,868.659546 
	C875.432617,868.659546 880.518555,868.659546 885.996277,868.659546 
	C885.996277,846.059021 885.996277,823.779541 885.996277,800.500000 
M974.176331,825.457397 
	C974.176331,808.235474 974.176331,791.013489 974.176331,773.943115 
	C968.366333,773.943115 963.473694,773.943115 958.301025,773.943115 
	C958.301025,776.021057 958.301453,777.673096 958.300964,779.325134 
	C958.296143,796.146423 958.547913,812.973877 958.143799,829.785583 
	C958.006714,835.487305 956.936157,841.411072 954.997803,846.764709 
	C952.430664,853.855408 946.098145,856.069763 938.907532,856.145752 
	C931.726868,856.221741 925.308838,854.219971 922.558533,847.173340 
	C920.554504,842.038574 919.376892,836.281494 919.250000,830.769165 
	C918.843872,813.124512 919.156372,795.464050 918.990540,777.811646 
	C918.976929,776.360107 917.562195,773.774231 916.598694,773.675964 
	C912.198669,773.227539 907.727356,773.479126 903.456360,773.479126 
	C903.456360,796.528564 902.416260,819.022217 903.795166,841.366577 
	C904.842896,858.343567 916.694885,868.749512 932.780640,870.732239 
	C949.957581,872.849365 964.054688,865.431763 970.536621,850.911621 
	C974.030762,843.084290 974.351013,834.802795 974.176331,825.457397 
M341.578583,870.119995 
	C346.109558,868.284729 350.640564,866.449463 355.232635,864.589417 
	C354.637268,862.882935 354.295227,861.771179 353.866791,860.693787 
	C343.605652,834.891724 333.342651,809.090332 323.062653,783.295776 
	C319.158051,773.498413 319.133667,773.692017 308.286133,773.417664 
	C304.351929,773.318054 302.454071,774.446045 300.979401,778.236084 
	C294.105682,795.901733 286.854401,813.420349 279.759979,831.000366 
	C275.293243,842.068909 270.865021,853.153015 266.260010,864.627563 
	C271.216644,866.636353 275.732391,868.466553 280.434875,870.372375 
	C283.478577,862.624023 286.513885,855.609436 288.951965,848.393066 
	C290.189880,844.729004 292.048859,843.682129 295.772522,843.788330 
	C305.089264,844.054077 314.440125,844.238098 323.735291,843.712524 
	C328.935089,843.418457 330.978088,845.456482 332.565735,850.004761 
	C334.948029,856.829590 338.091705,863.388672 341.578583,870.119995 
M833.870605,686.169922 
	C849.143860,677.515076 864.566223,677.796753 879.490356,686.516785 
	C898.082947,697.380188 916.272278,697.771545 934.605652,686.308350 
	C946.847412,678.653931 959.878357,677.875793 973.510132,681.710327 
	C974.873901,682.093933 976.892822,681.929993 977.980530,681.147888 
	C980.351807,679.442871 982.318726,677.175537 984.667114,674.931335 
	C983.658325,674.093506 983.106506,673.483337 982.427917,673.093872 
	C967.272827,664.394836 951.771240,664.137207 936.043396,671.375122 
	C930.462708,673.943298 925.221802,677.470398 919.429260,679.313721 
	C905.730408,683.672852 892.940247,680.491821 880.610901,673.600342 
	C864.408203,664.543945 847.615540,664.203125 831.548157,673.457764 
	C814.094788,683.510681 797.454163,683.842957 780.255615,673.124329 
	C768.455627,665.770203 755.362549,665.182312 742.113708,668.365295 
	C738.523315,669.227844 735.205383,671.224365 731.772644,672.696045 
	C735.344482,680.932190 737.823364,682.212097 745.113281,680.712708 
	C757.343323,678.197449 768.888123,679.782532 779.666016,686.473389 
	C797.456238,697.517395 815.359131,697.955566 833.870605,686.169922 
M559.500366,773.509033 
	C551.912048,773.509033 544.323730,773.509033 536.668823,773.509033 
	C536.668823,805.703613 536.668823,837.130005 536.668823,868.663818 
	C556.151855,868.663818 575.362183,868.663818 594.521790,868.663818 
	C594.521790,863.782043 594.521790,859.226685 594.521790,854.304321 
	C580.569702,854.304321 566.975342,854.304321 553.249268,854.304321 
	C553.249268,844.910583 553.249268,835.899658 553.249268,826.572754 
	C565.279358,826.572754 576.886841,826.572754 588.582397,826.572754 
	C588.582397,821.719727 588.582397,817.197510 588.582397,812.346741 
	C576.579834,812.346741 564.977966,812.346741 553.222534,812.346741 
	C553.222534,804.152527 553.222534,796.300110 553.222534,788.112305 
	C567.237915,788.112305 580.862671,788.112305 594.635986,788.112305 
	C594.635986,783.178772 594.635986,778.590210 594.635986,774.107300 
	C594.077148,773.866150 593.778198,773.625244 593.478149,773.623779 
	C582.485596,773.571777 571.493042,773.541992 559.500366,773.509033 
M748.564819,865.036987 
	C762.704346,856.496460 765.208618,836.566711 754.702881,825.651917 
	C749.909729,820.672241 743.180969,817.393799 736.979309,813.981323 
	C731.764771,811.112061 725.937195,809.379639 720.577637,806.744080 
	C716.392456,804.685913 713.986267,801.274536 714.782166,796.196777 
	C715.553406,791.275879 719.014709,789.306213 723.252869,788.248047 
	C732.598206,785.914673 741.391785,787.970398 749.919922,791.848877 
	C751.365051,792.506226 752.811584,793.160706 754.643127,793.991333 
	C756.721191,789.015686 758.598450,784.520935 760.585510,779.763184 
	C744.784973,772.412476 729.247437,769.316956 713.276611,776.320496 
	C695.139648,784.273804 692.788208,807.557251 709.041504,818.809509 
	C714.703674,822.729553 721.452759,825.067566 727.662109,828.213562 
	C731.942993,830.382324 736.526672,832.200134 740.302734,835.061951 
	C746.310242,839.614746 745.722351,849.054321 739.243835,852.885132 
	C736.232178,854.666016 732.464417,855.582031 728.934631,855.994934 
	C718.595215,857.204590 709.728455,853.352173 701.575989,846.406860 
	C698.697937,851.188721 696.080627,855.537415 693.513123,859.803345 
	C705.431091,872.021118 732.254028,874.648743 748.564819,865.036987 
M955.887512,704.416260 
	C957.530396,702.710449 959.173340,701.004700 961.451294,698.639526 
	C950.691895,697.608459 941.703064,699.016968 933.494690,704.179382 
	C924.213501,710.016602 914.091980,713.917053 903.208435,711.961914 
	C895.026123,710.492004 886.952271,707.375183 879.367493,703.838989 
	C863.493530,696.438416 848.154663,696.194275 832.362793,704.078125 
	C825.460999,707.523804 818.032654,710.570251 810.504700,711.951294 
	C799.461243,713.977234 789.110352,710.498596 779.720093,704.339111 
	C772.546814,699.633789 764.659363,698.026733 755.398621,698.792603 
	C756.614868,700.325745 757.159058,701.381897 758.013123,702.029541 
	C764.605957,707.028625 771.035095,712.288940 777.937195,716.825989 
	C795.226868,728.191345 813.400574,729.079285 831.255127,718.744507 
	C848.088623,709.000610 864.224121,709.346130 881.021606,718.422607 
	C886.483826,721.374146 892.629333,723.638306 898.728516,724.730652 
	C921.179443,728.751709 938.218018,716.487305 955.887512,704.416260 
M669.044495,782.508484 
	C669.044495,779.596069 669.044495,776.683655 669.044495,773.834106 
	C644.675049,773.834106 621.080750,773.834106 597.377380,773.834106 
	C597.377380,778.731262 597.377380,783.331482 597.377380,788.487854 
	C606.692566,788.487854 615.752136,788.487854 625.224487,788.487854 
	C625.224487,815.615845 625.224487,842.187622 625.224487,868.673462 
	C630.750916,868.673462 635.837402,868.673462 641.203003,868.673462 
	C641.203003,855.238831 641.203003,842.098938 641.203003,828.959106 
	C641.203003,815.653320 641.203003,802.347595 641.203003,788.456665 
	C650.507996,788.456665 659.570923,788.456665 669.044434,788.456665 
	C669.044434,786.416565 669.044434,784.948486 669.044495,782.508484 
M674.483459,789.356628 
	C674.739014,794.965698 674.994568,800.574829 675.260559,806.413818 
	C679.643677,806.413818 683.710693,806.413818 688.491882,806.413818 
	C688.491882,795.297485 688.491882,784.452576 688.491882,773.768433 
	C683.766785,773.768433 679.147705,773.768433 674.451477,773.768433 
	C674.451477,778.820923 674.451477,783.605347 674.483459,789.356628 
z"/>
<path fill="#FAFAFA" opacity="1.000000" stroke="none" 
	d="
M423.940735,700.841797 
	C406.084290,710.736633 387.177063,715.807495 367.256256,716.132568 
	C338.264893,716.605774 309.260925,716.311096 280.262329,716.329346 
	C279.288086,716.329956 278.313751,716.172668 276.629761,716.028015 
	C276.629761,714.138000 276.630920,712.377441 276.629578,710.616821 
	C276.582275,648.121277 276.565308,585.625610 276.411804,523.130310 
	C276.402496,519.353760 277.126038,517.759155 281.310059,517.926514 
	C289.430969,518.251282 297.574066,518.021484 306.374146,518.021484 
	C306.374146,574.300598 306.374146,630.048462 306.374146,686.111328 
	C308.463287,686.275391 309.908600,686.487000 311.354004,686.487549 
	C329.519806,686.494446 347.686523,686.579041 365.851257,686.432312 
	C403.275452,686.129944 439.232574,661.815308 453.571075,627.266541 
	C468.431610,591.459900 460.536774,550.819275 433.512451,523.156921 
	C413.997406,503.181244 390.235077,493.218628 362.458252,493.056305 
	C335.795166,492.900482 309.127869,493.088226 282.466125,493.421814 
	C277.711243,493.481293 276.519440,491.927826 276.690918,487.480682 
	C276.997467,479.532043 276.777222,471.563141 276.777222,463.473175 
	C277.713501,463.226685 278.327240,462.923523 278.940796,462.923889 
	C307.437988,462.940918 335.939880,462.666656 364.431366,463.090698 
	C424.355988,463.982574 476.977051,508.356842 488.286377,567.108337 
	C498.283234,619.041687 473.193451,672.749146 426.451355,699.472168 
	C425.729309,699.884949 425.004913,700.293640 423.940735,700.841797 
z"/>
<path fill="#DC9A64" opacity="1.000000" stroke="none" 
	d="
M822.089233,450.009369 
	C858.898621,444.167419 888.695862,456.441986 911.398804,484.602814 
	C934.869080,513.715393 940.066895,546.450256 926.401550,581.742371 
	C924.790344,585.903503 922.645752,587.955139 917.771851,588.241272 
	C891.038147,589.810730 867.488770,581.495178 846.649170,565.376099 
	C823.066895,547.135620 806.907166,523.924927 801.697388,494.001740 
	C799.738403,482.750092 799.583618,471.442688 802.150635,460.269318 
	C802.591248,458.351257 804.336975,455.987885 806.079163,455.255219 
	C811.110474,453.139252 816.447632,451.750641 822.089233,450.009369 
M912.053650,527.646362 
	C913.070251,533.354309 914.274170,539.037659 915.029419,544.779968 
	C915.448059,547.962830 916.477844,550.686890 919.840332,550.574524 
	C923.402344,550.455505 924.849792,547.582703 924.653870,544.191101 
	C924.472107,541.046082 924.222656,537.870728 923.598145,534.790833 
	C917.229858,503.385010 899.879211,480.393768 870.847107,466.504883 
	C858.147339,460.429352 844.721313,457.933838 830.666748,459.093079 
	C827.723511,459.335846 824.599487,460.125641 824.618347,463.713745 
	C824.637817,467.382996 827.733521,467.874512 830.746399,468.028320 
	C835.385437,468.265198 840.052429,468.345062 844.649536,468.940033 
	C862.030151,471.189423 876.835510,478.858521 889.543396,490.774109 
	C900.230713,500.794952 907.135925,513.158203 912.053650,527.646362 
z"/>
<path fill="#F8F8F8" opacity="1.000000" stroke="none" 
	d="
M578.666443,561.670410 
	C608.837891,529.283020 638.788635,497.164459 668.791931,465.095001 
	C669.729370,464.092987 671.201050,462.979431 672.437439,462.963196 
	C684.551086,462.804108 696.667725,462.867310 709.878662,462.867310 
	C708.512329,464.700897 707.884277,465.734955 707.076111,466.600922 
	C672.241760,503.924988 637.389954,541.232666 602.545166,578.546997 
	C597.817749,583.609436 597.868042,583.586609 602.382019,588.732788 
	C639.112366,630.607788 675.827698,672.495911 712.531128,714.394470 
	C712.707214,714.595459 712.647583,715.002869 712.823669,716.088196 
	C705.152771,716.088196 697.506470,715.344360 690.065918,716.264404 
	C679.194214,717.608826 672.274780,713.439270 665.202087,705.184631 
	C631.221924,665.525757 596.541931,626.465271 561.947754,587.336121 
	C558.895447,583.883728 559.153442,581.904053 562.250183,578.892883 
	C567.849731,573.448242 573.073181,567.616638 578.666443,561.670410 
z"/>
<path fill="#DB9862" opacity="1.000000" stroke="none" 
	d="
M786.394043,625.230286 
	C786.394043,625.230286 786.181030,625.304810 785.967651,624.888916 
	C784.556152,623.008423 783.635437,621.101013 782.116089,620.149292 
	C769.767395,612.414307 761.944641,600.836670 754.682434,588.678528 
	C751.201660,582.851196 749.754822,576.267334 747.221741,570.258728 
	C744.090088,562.829956 744.089294,555.397705 743.229065,548.058044 
	C741.525818,533.524292 746.299500,519.802185 752.399170,506.953674 
	C756.211853,498.922363 759.857117,490.193848 768.396973,484.986572 
	C769.861023,484.989014 770.925659,484.984680 771.995361,485.383789 
	C772.011169,486.863190 772.021851,487.939117 772.024109,489.441956 
	C772.339233,492.227875 772.662781,494.586884 773.000854,496.963776 
	C773.015381,496.981628 773.046204,497.015869 773.033630,497.399261 
	C773.343628,499.178040 773.666138,500.573395 773.998169,502.226135 
	C774.012024,502.655151 774.016357,502.826782 774.013794,503.332275 
	C774.010803,504.111237 774.014709,504.556396 774.058350,505.373474 
	C775.079529,508.835876 776.060974,511.926392 777.034058,515.348999 
	C777.346680,516.442810 777.667786,517.204468 778.002869,518.226562 
	C778.023926,518.660706 778.031006,518.834473 777.804443,519.169067 
	C778.033997,519.867920 778.497131,520.406006 779.034119,521.303162 
	C780.697266,524.109070 782.286621,526.555847 783.875916,529.002625 
	C784.337158,529.898926 784.798401,530.795288 785.193542,532.437988 
	C785.104309,535.863281 784.781311,538.724243 788.673950,539.025879 
	C788.809143,539.145996 788.944397,539.266174 788.863647,539.827515 
	C789.109070,541.500000 789.570496,542.731323 790.261719,543.981201 
	C790.797607,544.031372 791.104553,544.048462 791.412292,544.051208 
	C791.544312,544.193909 791.676270,544.336609 791.855957,545.100830 
	C790.909363,549.993958 792.651733,552.385437 796.928162,553.036133 
	C796.928162,553.036133 796.993408,553.005554 796.980347,553.413086 
	C797.914673,554.900269 798.862000,555.979858 799.809387,557.059448 
	C800.215088,557.430603 800.620789,557.801758 801.034302,558.833984 
	C801.055359,559.995361 801.068665,560.495667 801.057495,561.370728 
	C801.691895,562.804504 802.350708,563.863647 803.304993,565.088623 
	C805.428040,567.167114 807.255554,569.079895 809.201660,571.216187 
	C809.859863,571.318115 810.399475,571.196594 811.032471,570.987732 
	C811.125732,570.900391 811.275940,570.693604 811.275940,570.693604 
	C811.599854,570.706726 811.853088,570.847351 812.054932,571.739380 
	C812.199280,575.726013 813.873718,577.258118 817.267334,576.759277 
	C817.267334,576.759277 816.998779,576.929382 817.045654,577.146484 
	C817.068176,577.577454 817.043884,577.791443 817.057129,578.319946 
	C817.717041,579.072998 818.339355,579.511475 818.986328,579.971008 
	C819.010986,579.992004 819.056824,580.037720 819.151489,580.240295 
	C819.428711,580.698059 819.673584,580.857605 820.213379,581.052368 
	C820.661133,581.462646 820.876099,581.742065 821.170288,582.227661 
	C821.420654,582.688416 821.653015,582.860901 822.150879,583.223267 
	C826.117554,586.317261 829.753174,589.332153 833.677490,591.906921 
	C837.636108,594.504150 841.881287,596.664612 846.058228,599.353027 
	C847.056335,600.113892 847.997070,600.538147 849.179688,601.230835 
	C853.625916,603.339539 857.830200,605.179932 862.196960,607.258545 
	C862.901123,607.650452 863.442871,607.804077 864.247314,607.971191 
	C864.685059,607.995483 864.860107,608.006165 865.237427,608.273621 
	C866.288879,608.677246 867.138123,608.824036 868.316833,609.118713 
	C870.773926,610.179504 872.901550,611.092285 875.206055,612.253784 
	C876.246277,612.337463 877.109558,612.172546 878.377441,612.012207 
	C882.190552,612.681458 885.599121,613.346069 889.219604,614.267822 
	C891.624451,616.682129 893.817322,618.839233 895.856934,621.293213 
	C893.798157,622.739258 891.892517,623.888367 889.694458,625.047729 
	C888.945862,625.370789 888.489868,625.683594 888.020264,626.003113 
	C888.006653,626.009766 887.986389,626.032166 887.579163,626.022766 
	C883.067871,626.397217 880.152344,628.602417 877.651367,632.001404 
	C875.848450,632.678284 874.404053,633.345886 872.589355,634.012451 
	C871.145142,634.674194 870.071350,635.337097 869.029480,636.354492 
	C871.075500,641.619873 875.983643,641.538452 880.097046,643.243774 
	C880.420593,643.711914 880.677979,643.896301 881.108398,644.222229 
	C881.436768,644.709656 881.703552,644.899536 881.883850,645.320312 
	C880.606384,647.093872 879.471924,648.557251 878.259033,650.121765 
	C877.116394,648.817383 876.480103,648.091003 875.324158,646.771423 
	C875.169678,648.418640 875.095276,649.212402 874.636108,649.961792 
	C871.854614,649.881348 869.457886,649.845276 867.061157,649.809265 
	C866.594177,649.800842 866.127197,649.792419 865.313721,649.240356 
	C859.127686,647.102173 853.288025,645.507629 847.448364,643.913086 
	C847.518127,644.640564 847.587830,645.368042 847.657532,646.095581 
	C846.874207,646.726868 846.184387,647.597961 845.290771,647.946533 
	C842.022217,649.221802 838.623596,650.173706 835.388306,651.521851 
	C829.245239,654.081665 828.916260,654.038757 826.108582,647.790527 
	C828.269348,647.181824 830.323120,646.603210 832.337280,646.035767 
	C829.687134,639.436707 829.722961,639.230652 821.917542,637.873718 
	C813.167114,636.352539 805.154663,633.021790 797.210693,629.225464 
	C793.778870,627.585388 791.211670,623.197388 786.394043,625.230286 
z"/>
<path fill="#FAFAFA" opacity="1.000000" stroke="none" 
	d="
M539.807617,716.240723 
	C532.704224,716.240662 526.075684,716.240662 518.925293,716.240662 
	C518.925293,631.770386 518.925293,547.768860 518.925293,463.334595 
	C528.300842,463.334595 537.838684,463.334595 548.174133,463.334595 
	C548.174133,465.011902 548.173584,466.754517 548.174194,468.497101 
	C548.203186,548.435181 548.245850,628.373291 548.243164,708.311340 
	C548.242859,717.512756 549.383301,716.072021 539.807617,716.240723 
z"/>
<path fill="#F7F7F7" opacity="1.000000" stroke="none" 
	d="
M1046.468994,817.438721 
	C1046.737549,818.561829 1047.139648,819.653687 1047.922363,820.199646 
	C1062.523682,830.383789 1062.828491,852.182007 1048.109009,862.189758 
	C1043.815063,865.109131 1038.645142,867.285767 1033.568726,868.404175 
	C1019.583557,871.485291 1005.466614,869.852478 990.804504,868.572876 
	C990.804504,866.611389 990.804504,864.992371 990.804504,863.373352 
	C990.804382,835.212891 990.872620,807.052002 990.722656,778.892334 
	C990.702637,775.131714 991.540039,773.422485 995.589417,773.479309 
	C1007.385193,773.644958 1019.197266,773.249878 1030.975464,773.738281 
	C1034.978027,773.904175 1039.136475,775.561951 1042.815552,777.368835 
	C1058.683472,785.162048 1060.605713,805.369141 1046.468994,817.438721 
M1041.188354,835.833496 
	C1038.036377,833.342468 1035.193481,829.409790 1031.669434,828.654663 
	C1023.866516,826.982361 1015.721436,826.906494 1007.481445,826.158203 
	C1007.284912,828.093567 1007.136841,828.882385 1007.135193,829.671448 
	C1007.119446,837.307007 1007.015808,844.946228 1007.263916,852.573792 
	C1007.297119,853.592407 1009.160767,855.416931 1010.152222,855.400452 
	C1017.247925,855.282532 1024.474609,855.518555 1031.394653,854.224792 
	C1040.452637,852.531433 1043.860352,845.731567 1041.188354,835.833496 
M1039.620850,799.510681 
	C1039.397705,793.094727 1035.846924,788.986206 1029.838867,788.057129 
	C1023.169739,787.025879 1016.322205,787.075806 1009.546021,786.908325 
	C1008.768921,786.889160 1007.278564,788.479309 1007.258240,789.349854 
	C1007.077515,797.110901 1007.153076,804.877930 1007.153076,813.437683 
	C1014.206055,813.090759 1020.698242,813.265686 1027.024414,812.324768 
	C1033.688843,811.333557 1038.884277,807.921570 1039.620850,799.510681 
z"/>
<path fill="#F6F6F6" opacity="1.000000" stroke="none" 
	d="
M366.130127,868.888672 
	C364.864349,867.565186 363.317505,866.247681 363.311401,864.923157 
	C363.177734,835.924255 363.247864,806.924561 363.168884,777.925232 
	C363.161072,775.054932 363.790771,773.695984 366.977875,773.618408 
	C374.800354,773.427917 382.616333,772.557800 390.432312,772.590210 
	C418.668060,772.707153 436.635284,790.312866 437.404327,818.625427 
	C437.837555,834.573975 434.031311,849.045227 421.149933,859.803223 
	C412.730469,866.834961 402.734741,869.746948 392.012115,869.870361 
	C383.535156,869.967957 375.048828,869.248230 366.130127,868.888672 
M420.885071,820.605774 
	C420.203552,796.324951 405.276367,783.551697 379.967285,788.136719 
	C379.967285,810.289368 379.967285,832.465637 379.967285,854.792603 
	C385.628510,854.792603 390.987915,855.346375 396.192291,854.683289 
	C409.088013,853.040222 417.149780,845.228088 419.722870,832.401428 
	C420.438477,828.834167 420.516418,825.139099 420.885071,820.605774 
z"/>
<path fill="#F7F7F7" opacity="1.000000" stroke="none" 
	d="
M211.946182,776.084778 
	C227.672241,769.805969 242.362549,772.245422 256.521515,779.773682 
	C257.527618,780.308533 258.402527,782.770813 258.029602,783.907532 
	C256.851044,787.499512 255.050079,790.887390 253.308975,794.756287 
	C250.055679,793.306274 247.177963,791.653992 244.082733,790.731323 
	C239.495529,789.363831 234.797745,787.904663 230.069519,787.565796 
	C219.032379,786.774780 210.934082,792.016357 206.628998,801.957886 
	C200.972580,815.020081 200.669037,828.634827 206.035980,841.855042 
	C212.423782,857.589905 233.119461,861.375488 245.119125,849.329712 
	C245.944016,848.501648 246.556076,847.083801 246.595718,845.917358 
	C246.759384,841.100159 246.664307,836.274109 246.664307,830.969116 
	C240.498154,830.969116 234.560471,830.969116 228.241791,830.969116 
	C228.241791,826.133179 228.241791,821.776733 228.241791,817.204468 
	C239.552094,817.204468 250.669601,817.204468 262.081360,817.204468 
	C262.081360,834.336731 262.081360,851.276001 262.081360,868.605713 
	C257.493988,868.605713 252.923203,868.605713 247.936096,868.605713 
	C247.724030,867.308350 247.471771,865.765137 247.159500,863.854736 
	C246.367554,864.138489 245.626434,864.291443 244.998489,864.645203 
	C220.558350,878.413513 196.288956,868.782959 188.437057,841.779541 
	C183.699631,825.487122 185.157593,809.442444 192.884048,794.199951 
	C197.000580,786.078979 203.232590,780.007568 211.946182,776.084778 
z"/>
<path fill="#F6F6F6" opacity="1.000000" stroke="none" 
	d="
M514.862671,817.019714 
	C517.288757,817.019409 519.233521,817.019409 521.436035,817.019409 
	C521.436035,834.529968 521.436035,851.444458 521.436035,868.677124 
	C516.689392,868.677124 512.102844,868.677124 507.112152,868.677124 
	C506.893097,867.345642 506.641846,865.818298 506.331696,863.933105 
	C505.009552,864.493408 503.951263,864.850159 502.978485,865.367615 
	C479.153839,878.041809 455.335510,868.271545 447.891815,842.344116 
	C442.598358,823.906311 444.124756,805.930115 454.961761,789.692688 
	C465.491394,773.915833 486.043823,768.074524 505.272247,775.285339 
	C522.563782,781.769775 519.288513,779.017212 512.305969,794.805176 
	C510.264618,793.818909 508.228455,792.840881 506.197113,791.852844 
	C483.302826,780.717590 465.544525,790.072021 462.309387,815.262085 
	C461.025146,825.261414 461.565277,835.203552 466.481964,844.439758 
	C474.489746,859.482605 493.047485,859.031311 504.712372,849.142700 
	C505.364136,848.590027 505.865417,847.482666 505.883636,846.621765 
	C505.991913,841.508667 505.937134,836.392090 505.937134,830.799927 
	C499.538208,830.799927 493.621521,830.799927 487.399963,830.799927 
	C487.399963,826.087524 487.399963,821.856934 487.399963,817.020020 
	C496.522949,817.020020 505.452087,817.020020 514.862671,817.019714 
z"/>
<path fill="#FAFAFA" opacity="1.000000" stroke="none" 
	d="
M885.996277,801.000000 
	C885.996277,823.779541 885.996277,846.059021 885.996277,868.659546 
	C880.518555,868.659546 875.432617,868.659546 869.722839,868.659546 
	C869.722839,855.137024 869.722839,841.598633 869.722839,827.771484 
	C856.026611,827.771484 842.944763,827.771484 829.255127,827.771484 
	C829.255127,841.263000 829.255127,854.793945 829.255127,868.650391 
	C823.579590,868.650391 818.499817,868.650391 813.034058,868.650391 
	C813.034058,837.185486 813.034058,805.679382 813.034058,773.848999 
	C818.207764,773.848999 823.278503,773.848999 828.890381,773.848999 
	C828.890381,786.730347 828.890381,799.467529 828.890381,812.509277 
	C842.651855,812.509277 855.877380,812.509277 869.521118,812.509277 
	C869.521118,799.638550 869.521118,787.032349 869.521118,773.978821 
	C875.114929,773.978821 880.302002,773.978821 885.996277,773.978821 
	C885.996277,782.915344 885.996277,791.707642 885.996277,801.000000 
z"/>
<path fill="#F7F7F7" opacity="1.000000" stroke="none" 
	d="
M974.176270,825.948242 
	C974.351013,834.802795 974.030762,843.084290 970.536621,850.911621 
	C964.054688,865.431763 949.957581,872.849365 932.780640,870.732239 
	C916.694885,868.749512 904.842896,858.343567 903.795166,841.366577 
	C902.416260,819.022217 903.456360,796.528564 903.456360,773.479126 
	C907.727356,773.479126 912.198669,773.227539 916.598694,773.675964 
	C917.562195,773.774231 918.976929,776.360107 918.990540,777.811646 
	C919.156372,795.464050 918.843872,813.124512 919.250000,830.769165 
	C919.376892,836.281494 920.554504,842.038574 922.558533,847.173340 
	C925.308838,854.219971 931.726868,856.221741 938.907532,856.145752 
	C946.098145,856.069763 952.430664,853.855408 954.997803,846.764709 
	C956.936157,841.411072 958.006714,835.487305 958.143799,829.785583 
	C958.547913,812.973877 958.296143,796.146423 958.300964,779.325134 
	C958.301453,777.673096 958.301025,776.021057 958.301025,773.943115 
	C963.473694,773.943115 968.366333,773.943115 974.176331,773.943115 
	C974.176331,791.013489 974.176331,808.235474 974.176270,825.948242 
z"/>
<path fill="#F7F7F7" opacity="1.000000" stroke="none" 
	d="
M341.245117,870.090332 
	C338.091705,863.388672 334.948029,856.829590 332.565735,850.004761 
	C330.978088,845.456482 328.935089,843.418457 323.735291,843.712524 
	C314.440125,844.238098 305.089264,844.054077 295.772522,843.788330 
	C292.048859,843.682129 290.189880,844.729004 288.951965,848.393066 
	C286.513885,855.609436 283.478577,862.624023 280.434875,870.372375 
	C275.732391,868.466553 271.216644,866.636353 266.260010,864.627563 
	C270.865021,853.153015 275.293243,842.068909 279.759979,831.000366 
	C286.854401,813.420349 294.105682,795.901733 300.979401,778.236084 
	C302.454071,774.446045 304.351929,773.318054 308.286133,773.417664 
	C319.133667,773.692017 319.158051,773.498413 323.062653,783.295776 
	C333.342651,809.090332 343.605652,834.891724 353.866791,860.693787 
	C354.295227,861.771179 354.637268,862.882935 355.232635,864.589417 
	C350.640564,866.449463 346.109558,868.284729 341.245117,870.090332 
M321.744049,829.546265 
	C325.426331,829.399719 323.537506,827.141785 323.016693,825.758667 
	C319.690765,816.925964 316.253845,808.135010 312.823669,799.341858 
	C312.216492,797.785461 311.469666,796.283508 310.271820,793.602661 
	C305.358734,806.192261 300.949554,817.490601 296.243591,829.549377 
	C305.077759,829.549377 312.979553,829.549377 321.744049,829.546265 
z"/>
<path fill="#CF9160" opacity="1.000000" stroke="none" 
	d="
M833.550598,686.360962 
	C815.359131,697.955566 797.456238,697.517395 779.666016,686.473389 
	C768.888123,679.782532 757.343323,678.197449 745.113281,680.712708 
	C737.823364,682.212097 735.344482,680.932190 731.772644,672.696045 
	C735.205383,671.224365 738.523315,669.227844 742.113708,668.365295 
	C755.362549,665.182312 768.455627,665.770203 780.255615,673.124329 
	C797.454163,683.842957 814.094788,683.510681 831.548157,673.457764 
	C847.615540,664.203125 864.408203,664.543945 880.610901,673.600342 
	C892.940247,680.491821 905.730408,683.672852 919.429260,679.313721 
	C925.221802,677.470398 930.462708,673.943298 936.043396,671.375122 
	C951.771240,664.137207 967.272827,664.394836 982.427917,673.093872 
	C983.106506,673.483337 983.658325,674.093506 984.667114,674.931335 
	C982.318726,677.175537 980.351807,679.442871 977.980530,681.147888 
	C976.892822,681.929993 974.873901,682.093933 973.510132,681.710327 
	C959.878357,677.875793 946.847412,678.653931 934.605652,686.308350 
	C916.272278,697.771545 898.082947,697.380188 879.490356,686.516785 
	C864.566223,677.796753 849.143860,677.515076 833.550598,686.360962 
z"/>
<path fill="#F6F6F6" opacity="1.000000" stroke="none" 
	d="
M560.000366,773.509094 
	C571.493042,773.541992 582.485596,773.571777 593.478149,773.623779 
	C593.778198,773.625244 594.077148,773.866150 594.635986,774.107300 
	C594.635986,778.590210 594.635986,783.178772 594.635986,788.112305 
	C580.862671,788.112305 567.237915,788.112305 553.222534,788.112305 
	C553.222534,796.300110 553.222534,804.152527 553.222534,812.346741 
	C564.977966,812.346741 576.579834,812.346741 588.582397,812.346741 
	C588.582397,817.197510 588.582397,821.719727 588.582397,826.572754 
	C576.886841,826.572754 565.279358,826.572754 553.249268,826.572754 
	C553.249268,835.899658 553.249268,844.910583 553.249268,854.304321 
	C566.975342,854.304321 580.569702,854.304321 594.521790,854.304321 
	C594.521790,859.226685 594.521790,863.782043 594.521790,868.663818 
	C575.362183,868.663818 556.151855,868.663818 536.668823,868.663818 
	C536.668823,837.130005 536.668823,805.703613 536.668823,773.509033 
	C544.323730,773.509033 551.912048,773.509033 560.000366,773.509094 
z"/>
<path fill="#F7F7F7" opacity="1.000000" stroke="none" 
	d="
M748.244629,865.211426 
	C732.254028,874.648743 705.431091,872.021118 693.513123,859.803345 
	C696.080627,855.537415 698.697937,851.188721 701.575989,846.406860 
	C709.728455,853.352173 718.595215,857.204590 728.934631,855.994934 
	C732.464417,855.582031 736.232178,854.666016 739.243835,852.885132 
	C745.722351,849.054321 746.310242,839.614746 740.302734,835.061951 
	C736.526672,832.200134 731.942993,830.382324 727.662109,828.213562 
	C721.452759,825.067566 714.703674,822.729553 709.041504,818.809509 
	C692.788208,807.557251 695.139648,784.273804 713.276611,776.320496 
	C729.247437,769.316956 744.784973,772.412476 760.585510,779.763184 
	C758.598450,784.520935 756.721191,789.015686 754.643127,793.991333 
	C752.811584,793.160706 751.365051,792.506226 749.919922,791.848877 
	C741.391785,787.970398 732.598206,785.914673 723.252869,788.248047 
	C719.014709,789.306213 715.553406,791.275879 714.782166,796.196777 
	C713.986267,801.274536 716.392456,804.685913 720.577637,806.744080 
	C725.937195,809.379639 731.764771,811.112061 736.979309,813.981323 
	C743.180969,817.393799 749.909729,820.672241 754.702881,825.651917 
	C765.208618,836.566711 762.704346,856.496460 748.244629,865.211426 
z"/>
<path fill="#CC9161" opacity="1.000000" stroke="none" 
	d="
M955.628662,704.657043 
	C938.218018,716.487305 921.179443,728.751709 898.728516,724.730652 
	C892.629333,723.638306 886.483826,721.374146 881.021606,718.422607 
	C864.224121,709.346130 848.088623,709.000610 831.255127,718.744507 
	C813.400574,729.079285 795.226868,728.191345 777.937195,716.825989 
	C771.035095,712.288940 764.605957,707.028625 758.013123,702.029541 
	C757.159058,701.381897 756.614868,700.325745 755.398621,698.792603 
	C764.659363,698.026733 772.546814,699.633789 779.720093,704.339111 
	C789.110352,710.498596 799.461243,713.977234 810.504700,711.951294 
	C818.032654,710.570251 825.460999,707.523804 832.362793,704.078125 
	C848.154663,696.194275 863.493530,696.438416 879.367493,703.838989 
	C886.952271,707.375183 895.026123,710.492004 903.208435,711.961914 
	C914.091980,713.917053 924.213501,710.016602 933.494690,704.179382 
	C941.703064,699.016968 950.691895,697.608459 961.451294,698.639526 
	C959.173340,701.004700 957.530396,702.710449 955.628662,704.657043 
z"/>
<path fill="#FDFDFD" opacity="1.000000" stroke="none" 
	d="
M669.044434,782.994507 
	C669.044434,784.948486 669.044434,786.416565 669.044434,788.456665 
	C659.570923,788.456665 650.507996,788.456665 641.203003,788.456665 
	C641.203003,802.347595 641.203003,815.653320 641.203003,828.959106 
	C641.203003,842.098938 641.203003,855.238831 641.203003,868.673462 
	C635.837402,868.673462 630.750916,868.673462 625.224487,868.673462 
	C625.224487,842.187622 625.224487,815.615845 625.224487,788.487854 
	C615.752136,788.487854 606.692566,788.487854 597.377380,788.487854 
	C597.377380,783.331482 597.377380,778.731262 597.377380,773.834106 
	C621.080750,773.834106 644.675049,773.834106 669.044495,773.834106 
	C669.044495,776.683655 669.044495,779.596069 669.044434,782.994507 
z"/>
<path fill="#CC9161" opacity="1.000000" stroke="none" 
	d="
M786.558716,625.541504 
	C791.211670,623.197388 793.778870,627.585388 797.210693,629.225464 
	C805.154663,633.021790 813.167114,636.352539 821.917542,637.873718 
	C829.722961,639.230652 829.687134,639.436707 832.337280,646.035767 
	C830.323120,646.603210 828.269348,647.181824 826.108582,647.790527 
	C828.916260,654.038757 829.245239,654.081665 835.388306,651.521851 
	C838.623596,650.173706 842.022217,649.221802 845.290771,647.946533 
	C846.184387,647.597961 846.874207,646.726868 847.657532,646.095581 
	C847.587830,645.368042 847.518127,644.640564 847.448364,643.913086 
	C853.288025,645.507629 859.127686,647.102173 865.008057,649.063110 
	C863.066650,649.271912 861.083252,649.128784 859.102661,648.954224 
	C849.649353,648.121155 841.057068,650.387756 832.899658,655.316406 
	C815.266846,665.970093 797.522156,666.454224 779.611755,655.527161 
	C764.108704,646.068848 748.205566,645.581909 732.234131,654.627808 
	C731.512268,655.036560 730.762268,655.398376 730.011597,655.752930 
	C719.212097,660.853760 719.026245,660.785828 712.915894,649.088318 
	C724.131409,644.607178 734.995850,638.967896 746.546814,636.000427 
	C759.210266,632.747009 771.557251,636.095215 782.781311,643.261658 
	C792.600037,649.530823 803.498108,651.684509 814.875366,648.943848 
	C819.889526,647.735901 824.554199,645.076904 829.264648,642.237549 
	C813.885864,639.144836 799.430420,634.781616 786.558716,625.541504 
z"/>
<path fill="#CF9160" opacity="1.000000" stroke="none" 
	d="
M875.020874,650.006165 
	C875.095276,649.212402 875.169678,648.418640 875.324158,646.771423 
	C876.480103,648.091003 877.116394,648.817383 878.259033,650.121765 
	C879.471924,648.557251 880.606384,647.093872 882.247681,645.357666 
	C887.001892,646.797119 891.138794,648.938477 895.535522,650.071716 
	C898.488464,650.832825 901.809509,650.166260 904.965820,650.138428 
	C906.062500,650.080078 907.159119,650.021667 908.895874,650.297974 
	C910.719849,650.348633 911.903687,650.064636 913.087585,649.780701 
	C913.331116,649.532837 913.623291,649.442749 914.622070,649.710449 
	C922.399170,650.430176 927.545837,645.808716 933.340881,642.906372 
	C933.756287,642.698364 933.789856,641.728027 934.000977,641.112183 
	C934.000977,641.112183 934.243774,640.851257 934.841064,640.892029 
	C942.093567,639.598450 948.755920,638.297668 955.391968,636.874268 
	C956.012512,636.741150 956.466736,635.832825 956.998169,635.284424 
	C959.059509,635.238403 961.120911,635.192322 963.714355,635.636108 
	C971.099426,639.018066 977.934326,641.954163 984.812683,644.784546 
	C988.454102,646.282898 992.180786,647.572937 995.849548,649.006531 
	C997.528748,649.662598 999.161255,650.438232 1000.814941,651.159668 
	C999.783325,652.965759 999.122864,655.189331 997.649719,656.498718 
	C993.407471,660.269287 989.771118,656.558472 986.023926,655.009583 
	C979.672546,652.384033 973.550537,648.270569 966.968994,647.334045 
	C954.233215,645.521729 941.634399,646.843201 930.620544,655.051514 
	C927.521973,657.360901 923.604980,659.347046 919.845154,659.850159 
	C908.236450,661.403503 896.427124,663.391418 885.428894,656.819397 
	C884.239807,656.108826 882.558716,656.221619 881.105835,655.952515 
	C881.105835,655.952515 881.031616,655.977783 881.013916,655.573486 
	C879.004456,653.448181 877.012634,651.727173 875.020874,650.006165 
z"/>
<path fill="#CC9161" opacity="1.000000" stroke="none" 
	d="
M772.032532,489.015076 
	C772.021851,487.939117 772.011169,486.863190 771.998047,484.998627 
	C771.347778,483.209778 770.700012,482.209534 770.052246,481.209290 
	C769.367371,482.466125 768.682495,483.722931 767.997559,484.979736 
	C759.857117,490.193848 756.211853,498.922363 752.399170,506.953674 
	C746.299500,519.802185 741.525818,533.524292 743.229065,548.058044 
	C744.089294,555.397705 744.090088,562.829956 747.221741,570.258728 
	C749.754822,576.267334 751.201660,582.851196 754.682434,588.678528 
	C761.944641,600.836670 769.767395,612.414307 782.116089,620.149292 
	C783.635437,621.101013 784.556152,623.008423 785.885254,624.811768 
	C770.945007,616.401855 759.728088,603.950745 751.712524,588.649963 
	C732.126587,551.262695 740.060425,505.778625 770.981812,477.145905 
	C771.546692,476.622803 772.249512,476.248718 773.422913,475.433472 
	C773.877197,482.710388 774.295715,489.415009 774.396790,496.561951 
	C773.734985,497.008148 773.390564,497.012024 773.046204,497.015869 
	C773.046204,497.015869 773.015381,496.981628 773.005981,496.540924 
	C772.675232,493.738495 772.353882,491.376801 772.032532,489.015076 
z"/>
<path fill="#F6F6F6" opacity="1.000000" stroke="none" 
	d="
M674.467468,788.873169 
	C674.451477,783.605347 674.451477,778.820923 674.451477,773.768433 
	C679.147705,773.768433 683.766785,773.768433 688.491882,773.768433 
	C688.491882,784.452576 688.491882,795.297485 688.491882,806.413818 
	C683.710693,806.413818 679.643677,806.413818 675.260559,806.413818 
	C674.994568,800.574829 674.739014,794.965698 674.467468,788.873169 
z"/>
<path fill="#CC9161" opacity="1.000000" stroke="none" 
	d="
M881.264282,656.247070 
	C882.558716,656.221619 884.239807,656.108826 885.428894,656.819397 
	C896.427124,663.391418 908.236450,661.403503 919.845154,659.850159 
	C923.604980,659.347046 927.521973,657.360901 930.620544,655.051514 
	C941.634399,646.843201 954.233215,645.521729 966.968994,647.334045 
	C973.550537,648.270569 979.672546,652.384033 986.023926,655.009583 
	C989.771118,656.558472 993.407471,660.269287 997.649719,656.498718 
	C999.122864,655.189331 999.783325,652.965759 1000.814941,651.159668 
	C999.161255,650.438232 997.528748,649.662598 995.849548,649.006531 
	C992.180786,647.572937 988.454102,646.282898 984.812683,644.784546 
	C977.934326,641.954163 971.099426,639.018066 964.125610,635.803284 
	C968.493530,636.507080 973.198853,636.989380 977.425964,638.672729 
	C986.329346,642.218384 994.982056,646.393555 1004.318176,650.570068 
	C1002.464417,653.071350 1000.502747,656.321533 997.901794,658.935791 
	C996.835327,660.007629 994.120483,660.438110 992.621765,659.888489 
	C988.590027,658.410156 984.739746,656.376160 980.941345,654.332336 
	C965.482422,646.013733 949.965271,645.748352 934.864868,654.755005 
	C922.100464,662.368225 908.793945,665.646362 894.269836,661.825867 
	C889.831299,660.658325 885.696594,658.335449 881.264282,656.247070 
z"/>
<path fill="#CC9161" opacity="1.000000" stroke="none" 
	d="
M875.029114,612.005127 
	C872.901550,611.092285 870.773926,610.179504 868.110962,608.865356 
	C866.728760,608.314941 865.881958,608.165833 865.035095,608.016785 
	C864.860107,608.006165 864.685059,607.995483 864.080933,607.737915 
	C863.112732,607.334106 862.573669,607.177185 862.034546,607.020264 
	C857.830200,605.179932 853.625916,603.339539 849.022827,600.980530 
	C847.749634,599.980042 846.875305,599.498230 846.000916,599.016418 
	C841.881287,596.664612 837.636108,594.504150 833.677490,591.906921 
	C829.753174,589.332153 826.117554,586.317261 822.065796,583.022095 
	C821.604858,582.299072 821.376526,582.123291 821.091125,582.021545 
	C820.876099,581.742065 820.661133,581.462646 820.110596,580.857666 
	C819.591003,580.287048 819.351562,580.122253 819.056824,580.037720 
	C819.056824,580.037720 819.010986,579.992004 818.873352,579.712036 
	C818.163635,578.956543 817.591614,578.480957 817.019531,578.005371 
	C817.043884,577.791443 817.068176,577.577454 817.171997,577.049805 
	C821.158386,579.765076 825.038086,582.830017 828.976807,585.817139 
	C850.564209,602.188721 874.744995,611.842957 901.853088,613.902893 
	C902.951477,613.986328 904.038574,614.217590 906.269714,614.549377 
	C900.459900,620.812073 894.393860,625.164917 887.371094,628.441772 
	C887.369385,627.455444 887.677917,626.743774 887.986389,626.032166 
	C887.986389,626.032166 888.006653,626.009766 888.309082,625.983582 
	C889.069946,625.650757 889.528442,625.344116 889.986938,625.037476 
	C891.892517,623.888367 893.798157,622.739258 896.171631,621.134644 
	C897.716125,619.356262 898.792725,618.033264 899.869324,616.710205 
	C898.353455,616.133240 896.876770,615.390686 895.312073,615.020081 
	C893.246765,614.530945 891.112366,614.333496 889.007629,614.010681 
	C885.599121,613.346069 882.190552,612.681458 878.009766,612.009033 
	C876.501343,612.002502 875.765259,612.003845 875.029114,612.005127 
z"/>
<path fill="#CC9161" opacity="1.000000" stroke="none" 
	d="
M778.038086,519.008301 
	C778.031006,518.834473 778.023926,518.660706 778.005066,517.896606 
	C777.676331,516.543091 777.359375,515.779968 777.042480,515.016907 
	C776.060974,511.926392 775.079529,508.835876 774.390503,505.372925 
	C775.127136,504.998627 775.571350,504.996796 776.015503,504.994965 
	C778.642639,512.743591 781.269714,520.492249 783.886353,528.621765 
	C782.286621,526.555847 780.697266,524.109070 779.027527,521.017151 
	C778.644104,519.917419 778.341125,519.462891 778.038086,519.008301 
z"/>
<path fill="#CC9161" opacity="1.000000" stroke="none" 
	d="
M872.959656,634.013550 
	C874.404053,633.345886 875.848450,632.678284 878.106201,632.091919 
	C879.216064,632.260803 879.512634,632.348450 879.809265,632.436157 
	C877.371338,633.776062 874.933411,635.115906 871.640930,636.925476 
	C875.022888,638.905151 877.900391,640.589600 880.901733,642.622925 
	C881.025513,642.971802 880.908630,643.092224 880.676208,643.066772 
	C880.443787,643.041321 879.976135,643.036560 879.976135,643.036560 
	C875.983643,641.538452 871.075500,641.619873 869.331787,636.224365 
	C870.721313,635.164246 871.840454,634.588867 872.959656,634.013550 
z"/>
<path fill="#CC9161" opacity="1.000000" stroke="none" 
	d="
M956.554565,635.169434 
	C956.466736,635.832825 956.012512,636.741150 955.391968,636.874268 
	C948.755920,638.297668 942.093567,639.598450 935.019165,640.898804 
	C941.037659,636.215576 948.406921,635.015259 956.554565,635.169434 
z"/>
<path fill="#CC9161" opacity="1.000000" stroke="none" 
	d="
M904.584656,650.026245 
	C901.809509,650.166260 898.488464,650.832825 895.535522,650.071716 
	C891.138794,648.938477 887.001892,646.797119 882.390625,645.047363 
	C881.703552,644.899536 881.436768,644.709656 881.096741,643.993408 
	C880.966919,643.546570 880.908630,643.092224 880.908630,643.092224 
	C880.908630,643.092224 881.025513,642.971802 881.083557,642.911133 
	C888.828918,645.205017 896.516174,647.559509 904.584656,650.026245 
z"/>
<path fill="#CC9161" opacity="1.000000" stroke="none" 
	d="
M933.649292,641.155273 
	C933.789856,641.728027 933.756287,642.698364 933.340881,642.906372 
	C927.545837,645.808716 922.399170,650.430176 914.810303,649.855957 
	C920.659668,646.933594 926.978699,644.065918 933.649292,641.155273 
z"/>
<path fill="#CC9161" opacity="1.000000" stroke="none" 
	d="
M874.636108,649.961792 
	C877.012634,651.727173 879.004456,653.448181 881.019348,655.534668 
	C876.571533,654.006531 872.100586,652.112915 867.345398,650.014282 
	C869.457886,649.845276 871.854614,649.881348 874.636108,649.961792 
z"/>
<path fill="#CC9161" opacity="1.000000" stroke="none" 
	d="
M809.083069,570.992676 
	C807.255554,569.079895 805.428040,567.167114 803.302612,564.710938 
	C802.955017,563.158752 802.905273,562.150024 802.886719,561.110962 
	C802.917969,561.080627 802.980408,561.019958 802.980408,561.019958 
	C805.687195,564.026855 808.393921,567.033752 811.188354,570.367126 
	C811.275940,570.693604 811.125732,570.900391 810.723633,570.962646 
	C809.908691,571.014221 809.495850,571.003418 809.083069,570.992676 
z"/>
<path fill="#CC9161" opacity="1.000000" stroke="none" 
	d="
M796.865234,552.692078 
	C792.651733,552.385437 790.909363,549.993958 791.944153,545.378784 
	C793.590576,547.472778 795.196472,549.910400 796.865234,552.692078 
z"/>
<path fill="#CF9160" opacity="1.000000" stroke="none" 
	d="
M880.044067,632.477234 
	C879.512634,632.348450 879.216064,632.260803 878.464661,632.082642 
	C880.152344,628.602417 883.067871,626.397217 887.579163,626.022766 
	C887.677917,626.743774 887.369385,627.455444 887.026123,628.457092 
	C886.991455,628.747131 886.783691,629.089355 886.198486,629.096985 
	C884.075928,630.047119 882.538574,630.989563 881.001221,631.932007 
	C880.860901,632.251404 880.620117,632.446838 880.044067,632.477234 
z"/>
<path fill="#CC9161" opacity="1.000000" stroke="none" 
	d="
M817.194702,576.434204 
	C813.873718,577.258118 812.199280,575.726013 812.121338,571.953247 
	C813.819702,573.065063 815.470886,574.587097 817.194702,576.434204 
z"/>
<path fill="#CC9161" opacity="1.000000" stroke="none" 
	d="
M788.680298,538.680603 
	C784.781311,538.724243 785.104309,535.863281 785.206970,532.748413 
	C786.419922,534.320068 787.553345,536.327698 788.680298,538.680603 
z"/>
<path fill="#CC9161" opacity="1.000000" stroke="none" 
	d="
M881.350464,631.910522 
	C882.538574,630.989563 884.075928,630.047119 885.999268,629.116577 
	C884.823364,630.048645 883.261536,630.968811 881.350464,631.910522 
z"/>
<path fill="#CC9161" opacity="1.000000" stroke="none" 
	d="
M799.771301,556.743652 
	C798.862000,555.979858 797.914673,554.900269 796.964844,553.445618 
	C797.885986,554.189636 798.809570,555.308777 799.771301,556.743652 
z"/>
<path fill="#CC9161" opacity="1.000000" stroke="none" 
	d="
M774.020752,502.998444 
	C774.016357,502.826782 774.012024,502.655151 774.003418,501.905640 
	C774.286560,500.572693 774.574097,499.817596 774.861633,499.062500 
	C775.195496,500.145660 775.529297,501.228821 775.523499,502.656921 
	C774.796143,503.000702 774.408447,502.999573 774.020752,502.998444 
z"/>
<path fill="#CF9160" opacity="1.000000" stroke="none" 
	d="
M790.031982,543.962646 
	C789.570496,542.731323 789.109070,541.500000 788.919922,540.093018 
	C789.503906,540.323120 789.815552,540.728943 790.088379,541.784790 
	C790.043762,542.944153 790.037842,543.453369 790.031982,543.962646 
z"/>
<path fill="#CC9161" opacity="1.000000" stroke="none" 
	d="
M912.807800,649.672607 
	C911.903687,650.064636 910.719849,650.348633 909.298828,650.392212 
	C910.217163,649.956055 911.372559,649.760254 912.807800,649.672607 
z"/>
<path fill="#CF9160" opacity="1.000000" stroke="none" 
	d="
M774.927856,498.708893 
	C774.574097,499.817596 774.286560,500.572693 773.993835,501.648285 
	C773.666138,500.573395 773.343628,499.178040 773.033630,497.399261 
	C773.390564,497.012024 773.734985,497.008148 774.338013,497.002258 
	C774.729187,497.451904 774.861633,497.903595 774.927856,498.708893 
z"/>
<path fill="#CC9161" opacity="1.000000" stroke="none" 
	d="
M790.261719,543.981201 
	C790.037842,543.453369 790.043762,542.944153 790.084351,542.053101 
	C790.585144,542.273376 791.051270,542.875427 791.464844,543.764282 
	C791.104553,544.048462 790.797607,544.031372 790.261719,543.981201 
z"/>
<path fill="#CC9161" opacity="1.000000" stroke="none" 
	d="
M801.081970,560.995972 
	C801.068665,560.495667 801.055359,559.995361 801.073425,559.120605 
	C801.681152,559.303040 802.257446,559.859985 802.907104,560.718445 
	C802.980408,561.019958 802.917969,561.080627 802.593628,561.064636 
	C801.873535,561.031128 801.477783,561.013550 801.081970,560.995972 
z"/>
<path fill="#CF9160" opacity="1.000000" stroke="none" 
	d="
M774.013794,503.332275 
	C774.408447,502.999573 774.796143,503.000702 775.471924,503.001648 
	C775.861694,503.439453 775.963318,503.877472 776.040283,504.655212 
	C775.571350,504.996796 775.127136,504.998627 774.350830,505.001007 
	C774.014709,504.556396 774.010803,504.111237 774.013794,503.332275 
z"/>
<path fill="#FDF5EA" opacity="1.000000" stroke="none" 
	d="
M911.958252,527.256592 
	C907.135925,513.158203 900.230713,500.794952 889.543396,490.774109 
	C876.835510,478.858521 862.030151,471.189423 844.649536,468.940033 
	C840.052429,468.345062 835.385437,468.265198 830.746399,468.028320 
	C827.733521,467.874512 824.637817,467.382996 824.618347,463.713745 
	C824.599487,460.125641 827.723511,459.335846 830.666748,459.093079 
	C844.721313,457.933838 858.147339,460.429352 870.847107,466.504883 
	C899.879211,480.393768 917.229858,503.385010 923.598145,534.790833 
	C924.222656,537.870728 924.472107,541.046082 924.653870,544.191101 
	C924.849792,547.582703 923.402344,550.455505 919.840332,550.574524 
	C916.477844,550.686890 915.448059,547.962830 915.029419,544.779968 
	C914.274170,539.037659 913.070251,533.354309 911.958252,527.256592 
z"/>
<path fill="#CF9160" opacity="1.000000" stroke="none" 
	d="
M889.219604,614.267822 
	C891.112366,614.333496 893.246765,614.530945 895.312073,615.020081 
	C896.876770,615.390686 898.353455,616.133240 899.869324,616.710205 
	C898.792725,618.033264 897.716125,619.356262 896.324829,620.837830 
	C893.817322,618.839233 891.624451,616.682129 889.219604,614.267822 
z"/>
<path fill="#CF9160" opacity="1.000000" stroke="none" 
	d="
M768.396973,484.986572 
	C768.682495,483.722931 769.367371,482.466125 770.052246,481.209290 
	C770.700012,482.209534 771.347778,483.209778 771.992920,484.595154 
	C770.925659,484.984680 769.861023,484.989014 768.396973,484.986572 
z"/>
<path fill="#CF9160" opacity="1.000000" stroke="none" 
	d="
M772.024109,489.441956 
	C772.353882,491.376801 772.675232,493.738495 772.991455,496.523071 
	C772.662781,494.586884 772.339233,492.227875 772.024109,489.441956 
z"/>
<path fill="#CF9160" opacity="1.000000" stroke="none" 
	d="
M801.057495,561.370667 
	C801.477783,561.013550 801.873535,561.031128 802.562439,561.094971 
	C802.905273,562.150024 802.955017,563.158752 803.007141,564.545166 
	C802.350708,563.863647 801.691895,562.804504 801.057495,561.370667 
z"/>
<path fill="#CF9160" opacity="1.000000" stroke="none" 
	d="
M872.589355,634.012390 
	C871.840454,634.588867 870.721313,635.164246 869.299866,635.869751 
	C870.071350,635.337097 871.145142,634.674194 872.589355,634.012390 
z"/>
<path fill="#CF9160" opacity="1.000000" stroke="none" 
	d="
M846.058228,599.353027 
	C846.875305,599.498230 847.749634,599.980042 848.780945,600.712158 
	C847.997070,600.538147 847.056335,600.113892 846.058228,599.353027 
z"/>
<path fill="#CF9160" opacity="1.000000" stroke="none" 
	d="
M777.804443,519.169067 
	C778.341125,519.462891 778.644104,519.917419 778.953735,520.658020 
	C778.497131,520.406006 778.033997,519.867920 777.804443,519.169067 
z"/>
<path fill="#CF9160" opacity="1.000000" stroke="none" 
	d="
M777.033997,515.348999 
	C777.359375,515.779968 777.676331,516.543091 777.991089,517.636108 
	C777.667786,517.204468 777.346680,516.442810 777.033997,515.348999 
z"/>
<path fill="#CF9160" opacity="1.000000" stroke="none" 
	d="
M817.057129,578.319946 
	C817.591614,578.480957 818.163635,578.956543 818.848755,579.691040 
	C818.339355,579.511475 817.717041,579.072998 817.057129,578.319946 
z"/>
<path fill="#CF9160" opacity="1.000000" stroke="none" 
	d="
M865.237427,608.273621 
	C865.881958,608.165833 866.728760,608.314941 867.781494,608.717407 
	C867.138123,608.824036 866.288879,608.677246 865.237427,608.273621 
z"/>
<path fill="#CF9160" opacity="1.000000" stroke="none" 
	d="
M875.206055,612.253784 
	C875.765259,612.003845 876.501343,612.002502 877.605225,612.004395 
	C877.109558,612.172546 876.246277,612.337463 875.206055,612.253784 
z"/>
<path fill="#CF9160" opacity="1.000000" stroke="none" 
	d="
M809.201660,571.216187 
	C809.495850,571.003418 809.908691,571.014221 810.630310,571.050049 
	C810.399475,571.196594 809.859863,571.318115 809.201660,571.216187 
z"/>
<path fill="#CF9160" opacity="1.000000" stroke="none" 
	d="
M889.694458,625.047729 
	C889.528442,625.344116 889.069946,625.650757 888.322632,625.976929 
	C888.489868,625.683594 888.945862,625.370789 889.694458,625.047729 
z"/>
<path fill="#CF9160" opacity="1.000000" stroke="none" 
	d="
M862.196960,607.258545 
	C862.573669,607.177185 863.112732,607.334106 863.818237,607.724365 
	C863.442871,607.804077 862.901123,607.650452 862.196960,607.258545 
z"/>
<path fill="#CF9160" opacity="1.000000" stroke="none" 
	d="
M880.676208,643.066772 
	C880.908630,643.092224 880.966919,643.546570 880.978516,643.775391 
	C880.677979,643.896301 880.420593,643.711914 880.097046,643.243774 
	C879.976135,643.036560 880.443787,643.041321 880.676208,643.066772 
z"/>
<path fill="#CF9160" opacity="1.000000" stroke="none" 
	d="
M821.170288,582.227661 
	C821.376526,582.123291 821.604858,582.299072 821.861328,582.749878 
	C821.653015,582.860901 821.420654,582.688416 821.170288,582.227661 
z"/>
<path fill="#CF9160" opacity="1.000000" stroke="none" 
	d="
M819.151489,580.240295 
	C819.351562,580.122253 819.591003,580.287048 819.877930,580.726807 
	C819.673584,580.857605 819.428711,580.698059 819.151489,580.240295 
z"/>
<path fill="#0A0A0A" opacity="1.000000" stroke="none" 
	d="
M1041.322510,836.214478 
	C1043.860352,845.731567 1040.452637,852.531433 1031.394653,854.224792 
	C1024.474609,855.518555 1017.247925,855.282532 1010.152222,855.400452 
	C1009.160767,855.416931 1007.297119,853.592407 1007.263916,852.573792 
	C1007.015808,844.946228 1007.119446,837.307007 1007.135193,829.671448 
	C1007.136841,828.882385 1007.284912,828.093567 1007.481445,826.158203 
	C1015.721436,826.906494 1023.866516,826.982361 1031.669434,828.654663 
	C1035.193481,829.409790 1038.036377,833.342468 1041.322510,836.214478 
z"/>
<path fill="#0A0A0A" opacity="1.000000" stroke="none" 
	d="
M1039.621094,799.902466 
	C1038.884277,807.921570 1033.688843,811.333557 1027.024414,812.324768 
	C1020.698242,813.265686 1014.206055,813.090759 1007.153076,813.437683 
	C1007.153076,804.877930 1007.077515,797.110901 1007.258240,789.349854 
	C1007.278564,788.479309 1008.768921,786.889160 1009.546021,786.908325 
	C1016.322205,787.075806 1023.169739,787.025879 1029.838867,788.057129 
	C1035.846924,788.986206 1039.397705,793.094727 1039.621094,799.902466 
z"/>
<path fill="#040404" opacity="1.000000" stroke="none" 
	d="
M420.885986,821.054199 
	C420.516418,825.139099 420.438477,828.834167 419.722870,832.401428 
	C417.149780,845.228088 409.088013,853.040222 396.192291,854.683289 
	C390.987915,855.346375 385.628510,854.792603 379.967285,854.792603 
	C379.967285,832.465637 379.967285,810.289368 379.967285,788.136719 
	C405.276367,783.551697 420.203552,796.324951 420.885986,821.054199 
z"/>
<path fill="#0A0A0A" opacity="1.000000" stroke="none" 
	d="
M321.312683,829.547852 
	C312.979553,829.549377 305.077759,829.549377 296.243591,829.549377 
	C300.949554,817.490601 305.358734,806.192261 310.271820,793.602661 
	C311.469666,796.283508 312.216492,797.785461 312.823669,799.341858 
	C316.253845,808.135010 319.690765,816.925964 323.016693,825.758667 
	C323.537506,827.141785 325.426331,829.399719 321.312683,829.547852 
z"/>
</svg>